<svg width="1106" height="314" viewBox="0 0 1106 314" fill="none" xmlns="http://www.w3.org/2000/svg">
<g clip-path="url(#clip0_572_504)">
<mask id="path-1-inside-1_572_504" fill="white">
<path d="M-0.5 178.5C17.9507 178.5 36.2208 174.866 53.267 167.805C70.3133 160.744 85.8019 150.395 98.8485 137.349L68.6595 107.16C59.5774 116.242 48.7953 123.446 36.9289 128.361C25.0625 133.276 12.3441 135.806 -0.5 135.806V178.5Z"/>
</mask>
<path d="M-0.5 178.5C17.9507 178.5 36.2208 174.866 53.267 167.805C70.3133 160.744 85.8019 150.395 98.8485 137.349L68.6595 107.16C59.5774 116.242 48.7953 123.446 36.9289 128.361C25.0625 133.276 12.3441 135.806 -0.5 135.806V178.5Z" stroke="white" stroke-opacity="0.7" stroke-width="86" mask="url(#path-1-inside-1_572_504)"/>
<mask id="path-2-inside-2_572_504" fill="white">
<path d="M237.5 135.5C219.049 135.5 200.779 139.134 183.733 146.195C166.687 153.256 151.198 163.605 138.151 176.652L168.563 207.063C177.616 198.01 188.363 190.828 200.191 185.929C212.02 181.03 224.697 178.508 237.5 178.508V135.5Z"/>
</mask>
<path d="M237.5 135.5C219.049 135.5 200.779 139.134 183.733 146.195C166.687 153.256 151.198 163.605 138.151 176.652L168.563 207.063C177.616 198.01 188.363 190.828 200.191 185.929C212.02 181.03 224.697 178.508 237.5 178.508V135.5Z" stroke="white" stroke-opacity="0.7" stroke-width="86" mask="url(#path-2-inside-2_572_504)"/>
<g filter="url(#filter0_d_572_504)">
<circle cx="237.5" cy="38" r="119" stroke="white" stroke-width="43" shape-rendering="crispEdges"/>
</g>
<g filter="url(#filter1_d_572_504)">
<circle cx="-0.5" cy="276" r="119" stroke="white" stroke-width="43" shape-rendering="crispEdges"/>
</g>
</g>
<path d="M396.56 98H435.2V238H396.42L394.6 223.44C390.96 228.853 386.293 233.24 380.6 236.6C374.907 239.96 368.233 241.64 360.58 241.64C350.127 241.64 340.373 239.68 331.32 235.76C322.267 231.84 314.287 226.427 307.38 219.52C300.473 212.613 295.06 204.633 291.14 195.58C287.313 186.433 285.4 176.633 285.4 166.18C285.4 156.193 287.22 146.86 290.86 138.18C294.5 129.5 299.633 121.847 306.26 115.22C312.887 108.593 320.493 103.413 329.08 99.68C337.76 95.9467 347.093 94.08 357.08 94.08C365.667 94.08 373.367 95.9 380.18 99.54C387.087 103.18 393.107 107.8 398.24 113.4L396.56 98ZM359.6 204.54C365.947 204.54 371.687 202.907 376.82 199.64C381.953 196.373 386.013 191.987 389 186.48C391.987 180.88 393.48 174.72 393.48 168C393.48 161.187 391.987 155.027 389 149.52C386.013 144.013 381.953 139.627 376.82 136.36C371.687 133.093 365.947 131.46 359.6 131.46C353.16 131.46 347.327 133.093 342.1 136.36C336.873 139.627 332.72 144.06 329.64 149.66C326.56 155.167 325.02 161.28 325.02 168C325.02 174.72 326.56 180.88 329.64 186.48C332.813 191.987 337.013 196.373 342.24 199.64C347.467 202.907 353.253 204.54 359.6 204.54ZM562.237 98H600.877V239.96C600.877 250.32 598.777 259.653 594.577 267.96C590.377 276.36 584.637 283.547 577.357 289.52C570.17 295.493 561.864 300.067 552.437 303.24C543.104 306.413 533.21 308 522.757 308C512.864 308 503.39 306.04 494.337 302.12C485.284 298.293 477.257 292.973 470.257 286.16C463.257 279.347 457.797 271.507 453.877 262.64L489.157 246.54C491.117 251.207 493.777 255.22 497.137 258.58C500.59 261.94 504.51 264.507 508.897 266.28C513.377 268.147 517.997 269.08 522.757 269.08C527.89 269.08 532.79 268.473 537.457 267.26C542.217 266.047 546.464 264.227 550.197 261.8C553.93 259.373 556.87 256.34 559.017 252.7C561.164 249.06 562.237 244.813 562.237 239.96V223.72C557.944 229.04 552.717 233.38 546.557 236.74C540.49 240.007 533.444 241.64 525.417 241.64C515.337 241.64 505.864 239.727 496.997 235.9C488.224 232.073 480.477 226.8 473.757 220.08C467.037 213.267 461.764 205.427 457.937 196.56C454.11 187.693 452.197 178.173 452.197 168C452.197 157.827 454.11 148.307 457.937 139.44C461.764 130.573 467.037 122.78 473.757 116.06C480.477 109.247 488.224 103.927 496.997 100.1C505.864 96.2733 515.337 94.36 525.417 94.36C533.444 94.36 540.49 96.04 546.557 99.4C552.717 102.667 557.944 106.96 562.237 112.28V98ZM525.977 204.54C532.324 204.54 538.064 202.907 543.197 199.64C548.33 196.28 552.344 191.847 555.237 186.34C558.224 180.833 559.717 174.72 559.717 168C559.717 161.28 558.224 155.167 555.237 149.66C552.344 144.06 548.33 139.627 543.197 136.36C538.064 133.093 532.324 131.46 525.977 131.46C519.724 131.46 513.984 133.093 508.757 136.36C503.624 139.627 499.517 144.06 496.437 149.66C493.357 155.167 491.817 161.28 491.817 168C491.817 174.72 493.357 180.88 496.437 186.48C499.517 191.987 503.624 196.373 508.757 199.64C513.984 202.907 519.724 204.54 525.977 204.54ZM733.435 98H772.075V238H733.295L731.475 223.44C727.835 228.853 723.168 233.24 717.475 236.6C711.782 239.96 705.108 241.64 697.455 241.64C687.002 241.64 677.248 239.68 668.195 235.76C659.142 231.84 651.162 226.427 644.255 219.52C637.348 212.613 631.935 204.633 628.015 195.58C624.188 186.433 622.275 176.633 622.275 166.18C622.275 156.193 624.095 146.86 627.735 138.18C631.375 129.5 636.508 121.847 643.135 115.22C649.762 108.593 657.368 103.413 665.955 99.68C674.635 95.9467 683.968 94.08 693.955 94.08C702.542 94.08 710.242 95.9 717.055 99.54C723.962 103.18 729.982 107.8 735.115 113.4L733.435 98ZM696.475 204.54C702.822 204.54 708.562 202.907 713.695 199.64C718.828 196.373 722.888 191.987 725.875 186.48C728.862 180.88 730.355 174.72 730.355 168C730.355 161.187 728.862 155.027 725.875 149.52C722.888 144.013 718.828 139.627 713.695 136.36C708.562 133.093 702.822 131.46 696.475 131.46C690.035 131.46 684.202 133.093 678.975 136.36C673.748 139.627 669.595 144.06 666.515 149.66C663.435 155.167 661.895 161.28 661.895 168C661.895 174.72 663.435 180.88 666.515 186.48C669.688 191.987 673.888 196.373 679.115 199.64C684.342 202.907 690.128 204.54 696.475 204.54ZM800.206 238V98H838.846V108.36C843.606 103.88 849.113 100.38 855.366 97.86C861.62 95.34 868.246 94.08 875.246 94.08C884.766 94.08 893.493 96.2733 901.426 100.66C909.453 105.047 915.893 110.88 920.746 118.16C925.693 110.88 932.133 105.047 940.066 100.66C948 96.2733 956.68 94.08 966.106 94.08C976.28 94.08 985.473 96.5533 993.686 101.5C1001.99 106.447 1008.62 113.073 1013.57 121.38C1018.51 129.593 1020.99 138.787 1020.99 148.96V238H982.346V159.6C982.346 154.747 981.133 150.36 978.706 146.44C976.373 142.427 973.246 139.253 969.326 136.92C965.406 134.493 961.02 133.28 956.166 133.28C951.313 133.28 946.88 134.447 942.866 136.78C938.946 139.113 935.773 142.287 933.346 146.3C931.013 150.22 929.846 154.653 929.846 159.6V238H891.206V159.6C891.206 154.653 890.04 150.22 887.706 146.3C885.373 142.287 882.2 139.113 878.186 136.78C874.266 134.447 869.88 133.28 865.026 133.28C860.266 133.28 855.88 134.493 851.866 136.92C847.946 139.253 844.773 142.427 842.346 146.44C840.013 150.36 838.846 154.747 838.846 159.6V238H800.206ZM1049.03 98H1087.67V238H1049.03V98ZM1068.63 81.9C1063.03 81.9 1058.32 80.0333 1054.49 76.3C1050.67 72.5667 1048.75 67.9467 1048.75 62.44C1048.75 56.9333 1050.67 52.3133 1054.49 48.58C1058.32 44.8467 1062.99 42.98 1068.49 42.98C1074 42.98 1078.62 44.8467 1082.35 48.58C1086.18 52.3133 1088.09 56.9333 1088.09 62.44C1088.09 67.9467 1086.23 72.5667 1082.49 76.3C1078.85 80.0333 1074.23 81.9 1068.63 81.9Z" fill="white"/>
<defs>
<filter id="filter0_d_572_504" x="93" y="-102.5" width="289" height="289" filterUnits="userSpaceOnUse" color-interpolation-filters="sRGB">
<feFlood flood-opacity="0" result="BackgroundImageFix"/>
<feColorMatrix in="SourceAlpha" type="matrix" values="0 0 0 0 0 0 0 0 0 0 0 0 0 0 0 0 0 0 127 0" result="hardAlpha"/>
<feOffset dy="4"/>
<feGaussianBlur stdDeviation="2"/>
<feComposite in2="hardAlpha" operator="out"/>
<feColorMatrix type="matrix" values="0 0 0 0 0 0 0 0 0 0 0 0 0 0 0 0 0 0 0.25 0"/>
<feBlend mode="normal" in2="BackgroundImageFix" result="effect1_dropShadow_572_504"/>
<feBlend mode="normal" in="SourceGraphic" in2="effect1_dropShadow_572_504" result="shape"/>
</filter>
<filter id="filter1_d_572_504" x="-145" y="127.5" width="289" height="289" filterUnits="userSpaceOnUse" color-interpolation-filters="sRGB">
<feFlood flood-opacity="0" result="BackgroundImageFix"/>
<feColorMatrix in="SourceAlpha" type="matrix" values="0 0 0 0 0 0 0 0 0 0 0 0 0 0 0 0 0 0 127 0" result="hardAlpha"/>
<feOffset dy="-4"/>
<feGaussianBlur stdDeviation="2"/>
<feComposite in2="hardAlpha" operator="out"/>
<feColorMatrix type="matrix" values="0 0 0 0 0 0 0 0 0 0 0 0 0 0 0 0 0 0 0.25 0"/>
<feBlend mode="normal" in2="BackgroundImageFix" result="effect1_dropShadow_572_504"/>
<feBlend mode="normal" in="SourceGraphic" in2="effect1_dropShadow_572_504" result="shape"/>
</filter>
<clipPath id="clip0_572_504">
<rect width="237" height="237" fill="white" transform="translate(0 38.5)"/>
</clipPath>
</defs>
</svg>
