<svg width="1126" height="314" viewBox="0 0 1126 314" fill="none" xmlns="http://www.w3.org/2000/svg">
<g clip-path="url(#clip0_571_505)">
<mask id="path-1-inside-1_571_505" fill="white">
<path d="M19.5 178.5C37.9507 178.5 56.2208 174.866 73.267 167.805C90.3133 160.744 105.802 150.395 118.848 137.349L88.6595 107.16C79.5774 116.242 68.7953 123.446 56.9289 128.361C45.0625 133.276 32.3441 135.806 19.5 135.806V178.5Z"/>
</mask>
<path d="M19.5 178.5C37.9507 178.5 56.2208 174.866 73.267 167.805C90.3133 160.744 105.802 150.395 118.848 137.349L88.6595 107.16C79.5774 116.242 68.7953 123.446 56.9289 128.361C45.0625 133.276 32.3441 135.806 19.5 135.806V178.5Z" stroke="black" stroke-opacity="0.5" stroke-width="86" mask="url(#path-1-inside-1_571_505)"/>
<mask id="path-2-inside-2_571_505" fill="white">
<path d="M257.5 135.5C239.049 135.5 220.779 139.134 203.733 146.195C186.687 153.256 171.198 163.605 158.151 176.652L188.563 207.063C197.616 198.01 208.363 190.828 220.191 185.929C232.02 181.03 244.697 178.508 257.5 178.508V135.5Z"/>
</mask>
<path d="M257.5 135.5C239.049 135.5 220.779 139.134 203.733 146.195C186.687 153.256 171.198 163.605 158.151 176.652L188.563 207.063C197.616 198.01 208.363 190.828 220.191 185.929C232.02 181.03 244.697 178.508 257.5 178.508V135.5Z" stroke="black" stroke-opacity="0.5" stroke-width="86" mask="url(#path-2-inside-2_571_505)"/>
<circle cx="257.5" cy="38" r="119" stroke="black" stroke-width="43"/>
<circle cx="19.5" cy="276" r="119" stroke="black" stroke-width="43"/>
</g>
<path d="M416.56 98H455.2V238H416.42L414.6 223.44C410.96 228.853 406.293 233.24 400.6 236.6C394.907 239.96 388.233 241.64 380.58 241.64C370.127 241.64 360.373 239.68 351.32 235.76C342.267 231.84 334.287 226.427 327.38 219.52C320.473 212.613 315.06 204.633 311.14 195.58C307.313 186.433 305.4 176.633 305.4 166.18C305.4 156.193 307.22 146.86 310.86 138.18C314.5 129.5 319.633 121.847 326.26 115.22C332.887 108.593 340.493 103.413 349.08 99.68C357.76 95.9467 367.093 94.08 377.08 94.08C385.667 94.08 393.367 95.9 400.18 99.54C407.087 103.18 413.107 107.8 418.24 113.4L416.56 98ZM379.6 204.54C385.947 204.54 391.687 202.907 396.82 199.64C401.953 196.373 406.013 191.987 409 186.48C411.987 180.88 413.48 174.72 413.48 168C413.48 161.187 411.987 155.027 409 149.52C406.013 144.013 401.953 139.627 396.82 136.36C391.687 133.093 385.947 131.46 379.6 131.46C373.16 131.46 367.327 133.093 362.1 136.36C356.873 139.627 352.72 144.06 349.64 149.66C346.56 155.167 345.02 161.28 345.02 168C345.02 174.72 346.56 180.88 349.64 186.48C352.813 191.987 357.013 196.373 362.24 199.64C367.467 202.907 373.253 204.54 379.6 204.54ZM582.237 98H620.877V239.96C620.877 250.32 618.777 259.653 614.577 267.96C610.377 276.36 604.637 283.547 597.357 289.52C590.17 295.493 581.864 300.067 572.437 303.24C563.104 306.413 553.21 308 542.757 308C532.864 308 523.39 306.04 514.337 302.12C505.284 298.293 497.257 292.973 490.257 286.16C483.257 279.347 477.797 271.507 473.877 262.64L509.157 246.54C511.117 251.207 513.777 255.22 517.137 258.58C520.59 261.94 524.51 264.507 528.897 266.28C533.377 268.147 537.997 269.08 542.757 269.08C547.89 269.08 552.79 268.473 557.457 267.26C562.217 266.047 566.464 264.227 570.197 261.8C573.93 259.373 576.87 256.34 579.017 252.7C581.164 249.06 582.237 244.813 582.237 239.96V223.72C577.944 229.04 572.717 233.38 566.557 236.74C560.49 240.007 553.444 241.64 545.417 241.64C535.337 241.64 525.864 239.727 516.997 235.9C508.224 232.073 500.477 226.8 493.757 220.08C487.037 213.267 481.764 205.427 477.937 196.56C474.11 187.693 472.197 178.173 472.197 168C472.197 157.827 474.11 148.307 477.937 139.44C481.764 130.573 487.037 122.78 493.757 116.06C500.477 109.247 508.224 103.927 516.997 100.1C525.864 96.2733 535.337 94.36 545.417 94.36C553.444 94.36 560.49 96.04 566.557 99.4C572.717 102.667 577.944 106.96 582.237 112.28V98ZM545.977 204.54C552.324 204.54 558.064 202.907 563.197 199.64C568.33 196.28 572.344 191.847 575.237 186.34C578.224 180.833 579.717 174.72 579.717 168C579.717 161.28 578.224 155.167 575.237 149.66C572.344 144.06 568.33 139.627 563.197 136.36C558.064 133.093 552.324 131.46 545.977 131.46C539.724 131.46 533.984 133.093 528.757 136.36C523.624 139.627 519.517 144.06 516.437 149.66C513.357 155.167 511.817 161.28 511.817 168C511.817 174.72 513.357 180.88 516.437 186.48C519.517 191.987 523.624 196.373 528.757 199.64C533.984 202.907 539.724 204.54 545.977 204.54ZM753.435 98H792.075V238H753.295L751.475 223.44C747.835 228.853 743.168 233.24 737.475 236.6C731.782 239.96 725.108 241.64 717.455 241.64C707.002 241.64 697.248 239.68 688.195 235.76C679.142 231.84 671.162 226.427 664.255 219.52C657.348 212.613 651.935 204.633 648.015 195.58C644.188 186.433 642.275 176.633 642.275 166.18C642.275 156.193 644.095 146.86 647.735 138.18C651.375 129.5 656.508 121.847 663.135 115.22C669.762 108.593 677.368 103.413 685.955 99.68C694.635 95.9467 703.968 94.08 713.955 94.08C722.542 94.08 730.242 95.9 737.055 99.54C743.962 103.18 749.982 107.8 755.115 113.4L753.435 98ZM716.475 204.54C722.822 204.54 728.562 202.907 733.695 199.64C738.828 196.373 742.888 191.987 745.875 186.48C748.862 180.88 750.355 174.72 750.355 168C750.355 161.187 748.862 155.027 745.875 149.52C742.888 144.013 738.828 139.627 733.695 136.36C728.562 133.093 722.822 131.46 716.475 131.46C710.035 131.46 704.202 133.093 698.975 136.36C693.748 139.627 689.595 144.06 686.515 149.66C683.435 155.167 681.895 161.28 681.895 168C681.895 174.72 683.435 180.88 686.515 186.48C689.688 191.987 693.888 196.373 699.115 199.64C704.342 202.907 710.128 204.54 716.475 204.54ZM820.206 238V98H858.846V108.36C863.606 103.88 869.113 100.38 875.366 97.86C881.62 95.34 888.246 94.08 895.246 94.08C904.766 94.08 913.493 96.2733 921.426 100.66C929.453 105.047 935.893 110.88 940.746 118.16C945.693 110.88 952.133 105.047 960.066 100.66C968 96.2733 976.68 94.08 986.106 94.08C996.28 94.08 1005.47 96.5533 1013.69 101.5C1021.99 106.447 1028.62 113.073 1033.57 121.38C1038.51 129.593 1040.99 138.787 1040.99 148.96V238H1002.35V159.6C1002.35 154.747 1001.13 150.36 998.706 146.44C996.373 142.427 993.246 139.253 989.326 136.92C985.406 134.493 981.02 133.28 976.166 133.28C971.313 133.28 966.88 134.447 962.866 136.78C958.946 139.113 955.773 142.287 953.346 146.3C951.013 150.22 949.846 154.653 949.846 159.6V238H911.206V159.6C911.206 154.653 910.04 150.22 907.706 146.3C905.373 142.287 902.2 139.113 898.186 136.78C894.266 134.447 889.88 133.28 885.026 133.28C880.266 133.28 875.88 134.493 871.866 136.92C867.946 139.253 864.773 142.427 862.346 146.44C860.013 150.36 858.846 154.747 858.846 159.6V238H820.206ZM1069.03 98H1107.67V238H1069.03V98ZM1088.63 81.9C1083.03 81.9 1078.32 80.0333 1074.49 76.3C1070.67 72.5667 1068.75 67.9467 1068.75 62.44C1068.75 56.9333 1070.67 52.3133 1074.49 48.58C1078.32 44.8467 1082.99 42.98 1088.49 42.98C1094 42.98 1098.62 44.8467 1102.35 48.58C1106.18 52.3133 1108.09 56.9333 1108.09 62.44C1108.09 67.9467 1106.23 72.5667 1102.49 76.3C1098.85 80.0333 1094.23 81.9 1088.63 81.9Z" fill="black"/>
<defs>
<clipPath id="clip0_571_505">
<rect width="237" height="237" fill="white" transform="translate(20 38.5)"/>
</clipPath>
</defs>
</svg>
